# xmcd
#
# Track frame offsets:
#	150
#	89103
#	141112
#	161987
#
# Disc length: 2515 seconds
#
# Revision: 1
# Processed by: cddbd v1.5.2PL0 Copyright (c) Steve Scherf et al.
# Submitted via: EasyCDDAExtractor 16.0.6.1
#
DISCID=3709d104
DTITLE=Συλλογικός δίσκος - Κατάσταση πολιορκίας-Μ. Θεοδωράκης
DYEAR=1974
DGENRE=Ορατόρια
TTITLE0=Φαραντούρη Μαρία - Κατάσταση πολιορκίας [1ο μ., σύνθ. 1968, ηχ. 1972, 
TTITLE0=στ. Μαρίνα (Ρένα Χατζηδάκη)]
TTITLE1=Φαραντούρη Μαρία-Καλογιάννης Αντώνης - Κατάσταση πολιορκίας [2ο μ., σύ
TTITLE1=νθ. 1968, ηχ. 1972, στ. Μαρίνα (Ρένα Χατζηδάκη)]
TTITLE2=Καλογιάννης Αντώνης - Μιλώ [επί πλέον τρ. LP ''Νύχτα θανάτου-Μιλώ'' 19
TTITLE2=74, ποίηση Μαν. Αναγνωστάκης]
TTITLE3=Θεοδωράκης Μίκης - Μιλώ [επί πλέον τρ. LP ''Αρκαδίες'', ποίηση Μανώλης
TTITLE3=Αναγνωστάκης]
EXTD=
EXTT0=
EXTT1=
EXTT2=
EXTT3=
PLAYORDER=
